<svg fill="#363636" xmlns="http://www.w3.org/2000/svg" viewBox="0 0 64 64" x="0px" y="0px"><g><path d="M61.507,12.138,58,10.075V3a1,1,0,0,0-1-1H53a1,1,0,0,0-1,1V6.545L44.507,2.138a1,1,0,0,0-1.014,0l-17,10A1,1,0,0,0,26,13v5a1,1,0,0,0,1.507.862L30,17.4V26h2V16.22L44,9.16l12,7.06V32H54V19a1,1,0,0,0-1-1H47a1,1,0,0,0-1,1V32H44v2H59v2H44v2H60a1,1,0,0,0,1-1V33a1,1,0,0,0-1-1H58V17.4l2.493,1.466A1,1,0,0,0,62,18V13A1,1,0,0,0,61.507,12.138ZM48,32V20h4V32ZM54,7.722V4h2V8.9l-.4-.235Zm6,8.53-2.492-1.466h0l-13-7.647a1,1,0,0,0-1.014,0l-13,7.647h0L28,16.252v-2.68L44,4.16l9.051,5.324,3.442,2.026h0L60,13.572Z"></path><path d="M44,19a1,1,0,0,0-1-1H35a1,1,0,0,0-1,1v6a1,1,0,0,0,1,1h8a1,1,0,0,0,1-1Zm-8,1h2v4H36Zm6,4H40V20h2Z"></path><rect x="17" y="16" width="2" height="2"></rect><rect x="21" y="16" width="2" height="2"></rect><rect x="13" y="16" width="2" height="2"></rect><rect x="9" y="16" width="2" height="2"></rect><rect x="9" y="20" width="2" height="2"></rect><rect x="9" y="24" width="2" height="2"></rect><rect x="48" y="52" width="2" height="2"></rect><rect x="44" y="52" width="2" height="2"></rect><rect x="52" y="52" width="2" height="2"></rect><rect x="56" y="52" width="2" height="2"></rect><rect x="56" y="48" width="2" height="2"></rect><rect x="56" y="44" width="2" height="2"></rect><rect x="56" y="40" width="2" height="2"></rect><path d="M41,28H3a1,1,0,0,0-1,1V61a1,1,0,0,0,1,1H41a1,1,0,0,0,1-1V29A1,1,0,0,0,41,28ZM25,42.993V35.007a4.986,4.986,0,0,1,0,7.986ZM29,39a6.988,6.988,0,0,0-2.128-5h7.3A3.013,3.013,0,0,0,36,35.829v6.342A3.013,3.013,0,0,0,34.171,44h-7.3A6.988,6.988,0,0,0,29,39ZM25,54H40v2H25Zm0-2V50H40v2Zm0-6H35a1,1,0,0,0,1-1,1,1,0,0,1,1-1,1,1,0,0,0,1-1V35a1,1,0,0,0-1-1,1,1,0,0,1-1-1,1,1,0,0,0-1-1H25V30H40V48H25ZM23,30V48H21V30ZM4,54H19v2H4Zm15-2H4V50H19Zm0-16.993v7.986a4.986,4.986,0,0,1,0-7.986ZM15,39a6.988,6.988,0,0,0,2.128,5h-7.3A3.013,3.013,0,0,0,8,42.171V35.829A3.013,3.013,0,0,0,9.829,34h7.3A6.988,6.988,0,0,0,15,39ZM4,30H19v2H9a1,1,0,0,0-1,1,1,1,0,0,1-1,1,1,1,0,0,0-1,1v8a1,1,0,0,0,1,1,1,1,0,0,1,1,1,1,1,0,0,0,1,1H19v2H4ZM4,58H19v2H4Zm17,2V50h2V60Zm4,0V58H40v2Z"></path><rect x="31" y="38" width="2" height="2"></rect><rect x="11" y="38" width="2" height="2"></rect></g></svg>